rotated_Sprint_04500001_forces_filt50Hz.mot
version=1
nRows=24
nColumns=19
inDegrees=yes
endheader
time	R_ground_force_vx	R_ground_force_vy	R_ground_force_vz	R_ground_force_px	R_ground_force_py	R_ground_force_pz	R_ground_torque_x	R_ground_torque_y	R_ground_torque_z	L_ground_force_vx	L_ground_force_vy	L_ground_force_vz	L_ground_force_px	L_ground_force_py	L_ground_force_pz	L_ground_torque_x	L_ground_torque_y	L_ground_torque_z	
1.962000	410.705602	979.608393	-48.892876	  0.438502	  0.000000	 -0.232998	  0.000000	 21.139833	  0.000000	  0.000000	  0.000000	  0.000000	  0.600127	  0.000000	 -0.372869	  0.000000	  0.000000	  0.000000
1.962500	409.831771	959.175488	-45.882990	  0.432468	  0.000000	 -0.232697	  0.000000	 19.013733	  0.000000	  0.000000	  0.000000	  0.000000	  0.601779	  0.000000	 -0.370927	  0.000000	  0.000000	  0.000000
1.963000	408.699564	938.888141	-42.635944	  0.426485	  0.000000	 -0.232370	  0.000000	 16.700714	  0.000000	  0.000000	  0.000000	  0.000000	  0.603432	  0.000000	 -0.368984	  0.000000	  0.000000	  0.000000
1.963500	407.299393	918.763614	-39.164452	  0.420584	  0.000000	 -0.232016	  0.000000	 14.209498	  0.000000	  0.000000	  0.000000	  0.000000	  0.605085	  0.000000	 -0.367042	  0.000000	  0.000000	  0.000000
1.964000	405.622664	898.818187	-35.482995	  0.414795	  0.000000	 -0.231635	  0.000000	 11.550998	  0.000000	  0.000000	  0.000000	  0.000000	  0.606738	  0.000000	 -0.365100	  0.000000	  0.000000	  0.000000
1.964500	403.661886	879.066764	-31.607870	  0.409149	  0.000000	 -0.231227	  0.000000	  8.738443	  0.000000	  0.000000	  0.000000	  0.000000	  0.608391	  0.000000	 -0.363157	  0.000000	  0.000000	  0.000000
1.965000	401.410806	859.522568	-27.557234	  0.403676	  0.000000	 -0.230792	  0.000000	  5.787455	  0.000000	  0.000000	  0.000000	  0.000000	  0.610044	  0.000000	 -0.361215	  0.000000	  0.000000	  0.000000
1.965500	398.864561	840.196938	-23.351115	  0.398408	  0.000000	 -0.230331	  0.000000	  2.716076	  0.000000	  0.000000	  0.000000	  0.000000	  0.611728	  0.000000	 -0.359328	  0.000000	  0.000000	  0.000000
1.966000	396.019809	821.099199	-19.011395	  0.393376	  0.000000	 -0.229843	  0.000000	 -0.455281	  0.000000	  0.000000	  0.000000	  0.000000	  0.613412	  0.000000	 -0.357441	  0.000000	  0.000000	  0.000000
1.966500	392.874865	802.236533	-14.561770	  0.388609	  0.000000	 -0.229330	  0.000000	 -3.703941	  0.000000	  0.000000	  0.000000	  0.000000	  0.615096	  0.000000	 -0.355554	  0.000000	  0.000000	  0.000000
1.967000	389.429812	783.613822	-10.027663	  0.384133	  0.000000	 -0.228792	  0.000000	 -7.005158	  0.000000	  0.000000	  0.000000	  0.000000	  0.616780	  0.000000	 -0.353667	  0.000000	  0.000000	  0.000000
1.967500	385.686594	765.233441	 -5.436091	  0.379974	  0.000000	 -0.228230	  0.000000	-10.332391	  0.000000	  0.000000	  0.000000	  0.000000	  0.618465	  0.000000	 -0.351780	  0.000000	  0.000000	  0.000000
1.968000	381.649086	747.095049	 -0.815473	  0.376154	  0.000000	 -0.227646	  0.000000	-13.657652	  0.000000	  0.000000	  0.000000	  0.000000	  0.620149	  0.000000	 -0.349894	  0.000000	  0.000000	  0.000000
1.968500	377.323135	729.195452	  3.804592	  0.372689	  0.000000	 -0.227043	  0.000000	-16.951922	  0.000000	  0.000000	  0.000000	  0.000000	  0.621833	  0.000000	 -0.348007	  0.000000	  0.000000	  0.000000
1.969000	372.716562	711.528617	  8.393596	  0.369591	  0.000000	 -0.226422	  0.000000	-20.185624	  0.000000	  0.000000	  0.000000	  0.000000	  0.623517	  0.000000	 -0.346120	  0.000000	  0.000000	  0.000000
1.969500	367.839133	694.085869	 12.920400	  0.366869	  0.000000	 -0.225788	  0.000000	-23.329115	  0.000000	  0.000000	  0.000000	  0.000000	  0.625201	  0.000000	 -0.344233	  0.000000	  0.000000	  0.000000
1.970000	362.702505	676.856273	 17.353534	  0.364522	  0.000000	 -0.225143	  0.000000	-26.353195	  0.000000	  0.000000	  0.000000	  0.000000	  0.626885	  0.000000	 -0.342346	  0.000000	  0.000000	  0.000000
1.970500	357.320156	659.827144	 21.661515	  0.362549	  0.000000	 -0.224491	  0.000000	-29.229615	  0.000000	  0.000000	  0.000000	  0.000000	  0.628770	  0.000000	 -0.340388	  0.000000	  0.000000	  0.000000
1.971000	351.707301	642.984621	 25.813203	  0.360940	  0.000000	 -0.223838	  0.000000	-31.931560	  0.000000	  0.000000	  0.000000	  0.000000	  0.630654	  0.000000	 -0.338429	  0.000000	  0.000000	  0.000000
1.971500	345.880777	626.314205	 29.778173	  0.359684	  0.000000	 -0.223186	  0.000000	-34.434109	  0.000000	  0.000000	  0.000000	  0.000000	  0.632539	  0.000000	 -0.336470	  0.000000	  0.000000	  0.000000
1.972000	339.858904	609.801226	 33.527118	  0.358767	  0.000000	 -0.222543	  0.000000	-36.714644	  0.000000	  0.000000	  0.000000	  0.000000	  0.634424	  0.000000	 -0.334512	  0.000000	  0.000000	  0.000000
1.972500	333.661308	593.431238	 37.032250	  0.358168	  0.000000	 -0.221911	  0.000000	-38.753226	  0.000000	  0.000000	  0.000000	  0.000000	  0.636308	  0.000000	 -0.332554	  0.000000	  0.000000	  0.000000
1.973000	327.308715	577.190346	 40.267700	  0.357867	  0.000000	 -0.221296	  0.000000	-40.532910	  0.000000	  0.000000	  0.000000	  0.000000	  0.638193	  0.000000	 -0.330595	  0.000000	  0.000000	  0.000000
1.973500	320.822728	561.065496	 43.209873	  0.357840	  0.000000	 -0.220704	  0.000000	-42.039990	  0.000000	  0.000000	  0.000000	  0.000000	  0.640078	  0.000000	 -0.328637	  0.000000	  0.000000	  0.000000
